<mxfile host="65bd71144e">
    <diagram id="PSOhju9SBfGQxRlqysGx" name="PÃ¡gina-1">
        <mxGraphModel dx="705" dy="419" grid="1" gridSize="10" guides="1" tooltips="1" connect="1" arrows="1" fold="1" page="1" pageScale="1" pageWidth="827" pageHeight="1169" math="0" shadow="0">
            <root>
                <mxCell id="0"/>
                <mxCell id="1" parent="0"/>
                <mxCell id="2" value="Equipo" style="swimlane;fontStyle=1;align=center;verticalAlign=top;childLayout=stackLayout;horizontal=1;startSize=26;horizontalStack=0;resizeParent=1;resizeParentMax=0;resizeLast=0;collapsible=1;marginBottom=0;whiteSpace=wrap;html=1;" parent="1" vertex="1" collapsed="1">
                    <mxGeometry x="50" y="220" width="80" height="30" as="geometry">
                        <mxRectangle x="50" y="220" width="300" height="380" as="alternateBounds"/>
                    </mxGeometry>
                </mxCell>
                <mxCell id="3" value="- String nombre&lt;div&gt;- HashMap&amp;lt;String, Jugador&amp;gt; jugadores&lt;/div&gt;&lt;div&gt;- int cantPartidosGanados&lt;/div&gt;&lt;div&gt;&lt;span style=&quot;color: rgb(63, 63, 63);&quot;&gt;- int cantPartidosEmpatados&lt;/span&gt;&lt;/div&gt;&lt;div&gt;&lt;span style=&quot;color: rgb(63, 63, 63);&quot;&gt;&lt;span style=&quot;color: rgb(63, 63, 63);&quot;&gt;- int cantPartidosPerdidos&lt;/span&gt;&lt;/span&gt;&lt;/div&gt;&lt;div&gt;&lt;span style=&quot;color: rgb(63, 63, 63);&quot;&gt;&lt;span style=&quot;color: rgb(63, 63, 63);&quot;&gt;- int cantGolesAFavor&lt;/span&gt;&lt;/span&gt;&lt;/div&gt;&lt;div&gt;&lt;span style=&quot;color: rgb(63, 63, 63);&quot;&gt;&lt;span style=&quot;color: rgb(63, 63, 63);&quot;&gt;- int cantGolesEnContra&lt;/span&gt;&lt;/span&gt;&lt;/div&gt;" style="text;strokeColor=none;fillColor=none;align=left;verticalAlign=top;spacingLeft=4;spacingRight=4;overflow=hidden;rotatable=0;points=[[0,0.5],[1,0.5]];portConstraint=eastwest;whiteSpace=wrap;html=1;" parent="2" vertex="1">
                    <mxGeometry y="26" width="300" height="114" as="geometry"/>
                </mxCell>
                <mxCell id="4" value="" style="line;strokeWidth=1;fillColor=none;align=left;verticalAlign=middle;spacingTop=-1;spacingLeft=3;spacingRight=3;rotatable=0;labelPosition=right;points=[];portConstraint=eastwest;strokeColor=inherit;" parent="2" vertex="1">
                    <mxGeometry y="140" width="300" height="8" as="geometry"/>
                </mxCell>
                <mxCell id="5" value="+ Equipo(String nombre)&lt;div&gt;&lt;font color=&quot;#000000&quot;&gt;+ String getNombre()&lt;br&gt;&lt;/font&gt;&lt;div&gt;+ void agregarJugador(Jugador jugador)&lt;/div&gt;&lt;div&gt;+ boolean eliminarJugador(Jugador jugador)&lt;/div&gt;&lt;div&gt;+ HashMap&amp;lt;String, Jugador&amp;gt; getJugadores()&lt;/div&gt;&lt;div&gt;+ void setCantPartidosGanados(int victorias)&lt;/div&gt;&lt;div&gt;+ int getCantPartidosGanados()&lt;/div&gt;&lt;div&gt;&lt;div&gt;+ void setCantPartidosEmpatados(int empates)&lt;/div&gt;&lt;div&gt;+ int getCantPartidosEmpatados()&lt;/div&gt;&lt;/div&gt;&lt;div&gt;&lt;div&gt;+ void setCantPartidosPerdidos(int derrotas)&lt;/div&gt;&lt;div&gt;+ int getCantPartidosPerdidos()&lt;/div&gt;&lt;/div&gt;&lt;div&gt;+ void set&lt;span style=&quot;color: rgb(63, 63, 63); background-color: transparent;&quot;&gt;CantGolesAFavor(int aFavor)&lt;/span&gt;&lt;/div&gt;&lt;div&gt;&lt;span style=&quot;color: rgb(63, 63, 63); background-color: transparent;&quot;&gt;+ int get&lt;/span&gt;&lt;span style=&quot;color: rgb(63, 63, 63); background-color: transparent;&quot;&gt;CantGolesAFavor()&lt;/span&gt;&lt;/div&gt;&lt;/div&gt;&lt;div&gt;&lt;span style=&quot;color: rgb(63, 63, 63); background-color: transparent;&quot;&gt;&lt;div style=&quot;color: rgb(63, 63, 63);&quot;&gt;+ void set&lt;span style=&quot;background-color: transparent; color: rgb(63, 63, 63);&quot;&gt;CantGolesEnContra(int enContra)&lt;/span&gt;&lt;/div&gt;&lt;div style=&quot;color: rgb(63, 63, 63);&quot;&gt;&lt;span style=&quot;background-color: transparent; color: rgb(63, 63, 63);&quot;&gt;+ int get&lt;/span&gt;&lt;span style=&quot;background-color: transparent; color: rgb(63, 63, 63);&quot;&gt;CantGolesEnContra()&lt;/span&gt;&lt;/div&gt;&lt;/span&gt;&lt;/div&gt;" style="text;strokeColor=none;fillColor=none;align=left;verticalAlign=top;spacingLeft=4;spacingRight=4;overflow=hidden;rotatable=0;points=[[0,0.5],[1,0.5]];portConstraint=eastwest;whiteSpace=wrap;html=1;" parent="2" vertex="1">
                    <mxGeometry y="148" width="300" height="232" as="geometry"/>
                </mxCell>
                <mxCell id="6" value="Jugador" style="swimlane;fontStyle=1;align=center;verticalAlign=top;childLayout=stackLayout;horizontal=1;startSize=26;horizontalStack=0;resizeParent=1;resizeParentMax=0;resizeLast=0;collapsible=1;marginBottom=0;whiteSpace=wrap;html=1;" parent="1" vertex="1" collapsed="1">
                    <mxGeometry x="340" y="70" width="80" height="30" as="geometry">
                        <mxRectangle x="230" y="120" width="350" height="350" as="alternateBounds"/>
                    </mxGeometry>
                </mxCell>
                <mxCell id="7" value="- String nombre&lt;div&gt;- int anioNacimiento&lt;/div&gt;&lt;div&gt;- int numCamiseta&lt;/div&gt;&lt;div&gt;- int posicion&lt;/div&gt;&lt;div&gt;- int partidosJugados&lt;/div&gt;&lt;div&gt;- int cantGolesCampeonato&lt;/div&gt;" style="text;strokeColor=none;fillColor=none;align=left;verticalAlign=top;spacingLeft=4;spacingRight=4;overflow=hidden;rotatable=0;points=[[0,0.5],[1,0.5]];portConstraint=eastwest;whiteSpace=wrap;html=1;" parent="6" vertex="1">
                    <mxGeometry y="26" width="350" height="104" as="geometry"/>
                </mxCell>
                <mxCell id="8" value="" style="line;strokeWidth=1;fillColor=none;align=left;verticalAlign=middle;spacingTop=-1;spacingLeft=3;spacingRight=3;rotatable=0;labelPosition=right;points=[];portConstraint=eastwest;strokeColor=inherit;" parent="6" vertex="1">
                    <mxGeometry y="130" width="350" height="8" as="geometry"/>
                </mxCell>
                <mxCell id="9" value="+ Jugador(String nombre, int anioNacimiento)&lt;div&gt;+ Jugador&lt;span style=&quot;color: rgb(0, 0, 0); background-color: transparent;&quot;&gt;(String nombre, int anioNacimiento, int numCamiseta, int posicion, int partidosJugados, int catGolesCampeonato)&lt;/span&gt;&lt;/div&gt;&lt;div&gt;&lt;span style=&quot;color: rgb(0, 0, 0); background-color: transparent;&quot;&gt;+ String getNombre()&lt;/span&gt;&lt;/div&gt;&lt;div&gt;&lt;span style=&quot;color: rgb(0, 0, 0); background-color: transparent;&quot;&gt;+ String getAnioNacimiento()&lt;/span&gt;&lt;/div&gt;&lt;div&gt;&lt;span style=&quot;color: rgb(0, 0, 0); background-color: transparent;&quot;&gt;+ void setNumCamiseta(int numero)&lt;/span&gt;&lt;/div&gt;&lt;div&gt;&lt;span style=&quot;color: rgb(0, 0, 0); background-color: transparent;&quot;&gt;+ int getNumCamiseta()&lt;/span&gt;&lt;/div&gt;&lt;div&gt;&lt;span style=&quot;color: rgb(0, 0, 0); background-color: transparent;&quot;&gt;+ void setPosicion(int posicion)&lt;/span&gt;&lt;/div&gt;&lt;div&gt;&lt;span style=&quot;color: rgb(0, 0, 0); background-color: transparent;&quot;&gt;+ int getPosicion()&lt;/span&gt;&lt;/div&gt;&lt;div&gt;&lt;span style=&quot;color: rgb(0, 0, 0); background-color: transparent;&quot;&gt;+ void setPartidosJugados(int cantidad)&lt;/span&gt;&lt;/div&gt;&lt;div&gt;&lt;span style=&quot;color: rgb(0, 0, 0); background-color: transparent;&quot;&gt;+ int getPartidosJugados()&lt;/span&gt;&lt;/div&gt;&lt;div&gt;&lt;span style=&quot;color: rgb(0, 0, 0); background-color: transparent;&quot;&gt;+ void setCantGolesCampeonato(int cantidad)&lt;/span&gt;&lt;/div&gt;&lt;div&gt;&lt;span style=&quot;color: rgb(0, 0, 0); background-color: transparent;&quot;&gt;+ int getCantGolesCampeonato()&lt;/span&gt;&lt;/div&gt;&lt;div&gt;&lt;span style=&quot;color: rgb(0, 0, 0); background-color: transparent;&quot;&gt;&lt;br&gt;&lt;/span&gt;&lt;/div&gt;" style="text;strokeColor=none;fillColor=none;align=left;verticalAlign=top;spacingLeft=4;spacingRight=4;overflow=hidden;rotatable=0;points=[[0,0.5],[1,0.5]];portConstraint=eastwest;whiteSpace=wrap;html=1;" parent="6" vertex="1">
                    <mxGeometry y="138" width="350" height="212" as="geometry"/>
                </mxCell>
                <mxCell id="10" value="Partido" style="swimlane;fontStyle=1;align=center;verticalAlign=top;childLayout=stackLayout;horizontal=1;startSize=26;horizontalStack=0;resizeParent=1;resizeParentMax=0;resizeLast=0;collapsible=1;marginBottom=0;whiteSpace=wrap;html=1;" parent="1" vertex="1">
                    <mxGeometry x="817" y="390" width="280" height="190" as="geometry">
                        <mxRectangle x="817" y="390" width="80" height="30" as="alternateBounds"/>
                    </mxGeometry>
                </mxCell>
                <mxCell id="11" value="# Equipo[] equipos&lt;div&gt;&lt;span style=&quot;background-color: transparent;&quot;&gt;# Date fecha&lt;/span&gt;&lt;/div&gt;" style="text;strokeColor=none;fillColor=none;align=left;verticalAlign=top;spacingLeft=4;spacingRight=4;overflow=hidden;rotatable=0;points=[[0,0.5],[1,0.5]];portConstraint=eastwest;whiteSpace=wrap;html=1;" parent="10" vertex="1">
                    <mxGeometry y="26" width="280" height="44" as="geometry"/>
                </mxCell>
                <mxCell id="12" value="" style="line;strokeWidth=1;fillColor=none;align=left;verticalAlign=middle;spacingTop=-1;spacingLeft=3;spacingRight=3;rotatable=0;labelPosition=right;points=[];portConstraint=eastwest;strokeColor=inherit;" parent="10" vertex="1">
                    <mxGeometry y="70" width="280" height="8" as="geometry"/>
                </mxCell>
                <mxCell id="13" value="&lt;div&gt;+ Partido(Date fecha)&lt;/div&gt;&lt;div&gt;+ Partido(&lt;span style=&quot;background-color: transparent; color: rgb(0, 0, 0);&quot;&gt;Equipo[]&lt;/span&gt;&lt;span style=&quot;background-color: transparent; color: rgb(0, 0, 0);&quot;&gt;&amp;nbsp;equipos)&lt;/span&gt;&lt;/div&gt;&lt;div&gt;+ Partido(&lt;span style=&quot;background-color: transparent; color: rgb(0, 0, 0);&quot;&gt;Equipo[]&lt;/span&gt;&lt;span style=&quot;background-color: transparent; color: rgb(0, 0, 0);&quot;&gt;&amp;nbsp;equipos, Date fecha)&lt;/span&gt;&lt;/div&gt;+ void setEquipos(&lt;span style=&quot;color: rgb(0, 0, 0);&quot;&gt;Equipo[]&lt;/span&gt;&amp;nbsp;equipos)&lt;div&gt;+&amp;nbsp;&lt;span style=&quot;color: rgb(0, 0, 0);&quot;&gt;Equipo[]&lt;/span&gt;&amp;nbsp;getEquipos()&lt;/div&gt;&lt;div&gt;+ void setFecha(Date fecha)&lt;/div&gt;&lt;div&gt;+ Date getFecha()&lt;/div&gt;" style="text;strokeColor=none;fillColor=none;align=left;verticalAlign=top;spacingLeft=4;spacingRight=4;overflow=hidden;rotatable=0;points=[[0,0.5],[1,0.5]];portConstraint=eastwest;whiteSpace=wrap;html=1;" parent="10" vertex="1">
                    <mxGeometry y="78" width="280" height="112" as="geometry"/>
                </mxCell>
                <mxCell id="14" value="Torneo" style="swimlane;fontStyle=1;align=center;verticalAlign=top;childLayout=stackLayout;horizontal=1;startSize=26;horizontalStack=0;resizeParent=1;resizeParentMax=0;resizeLast=0;collapsible=1;marginBottom=0;whiteSpace=wrap;html=1;" parent="1" vertex="1">
                    <mxGeometry x="400" y="390" width="370" height="370" as="geometry">
                        <mxRectangle x="400" y="390" width="80" height="30" as="alternateBounds"/>
                    </mxGeometry>
                </mxCell>
                <mxCell id="15" value="&lt;div&gt;- static Torneo _instancia&lt;/div&gt;- HashMap&amp;lt;String, Equipo&amp;gt; equipos&lt;div&gt;- List&amp;lt;Partido&amp;gt; partidos&lt;/div&gt;&lt;div&gt;&lt;span style=&quot;color: rgb(63, 63, 63);&quot;&gt;- List&amp;lt;Gol&amp;gt; goles&lt;/span&gt;&lt;/div&gt;" style="text;strokeColor=none;fillColor=none;align=left;verticalAlign=top;spacingLeft=4;spacingRight=4;overflow=hidden;rotatable=0;points=[[0,0.5],[1,0.5]];portConstraint=eastwest;whiteSpace=wrap;html=1;" parent="14" vertex="1">
                    <mxGeometry y="26" width="370" height="64" as="geometry"/>
                </mxCell>
                <mxCell id="16" value="" style="line;strokeWidth=1;fillColor=none;align=left;verticalAlign=middle;spacingTop=-1;spacingLeft=3;spacingRight=3;rotatable=0;labelPosition=right;points=[];portConstraint=eastwest;strokeColor=inherit;" parent="14" vertex="1">
                    <mxGeometry y="90" width="370" height="8" as="geometry"/>
                </mxCell>
                <mxCell id="17" value="- Torneo()&lt;div&gt;+ static Torneo getInstancia()&lt;/div&gt;&lt;div&gt;+ void agregarEquipo(Equipo equipo)&lt;/div&gt;&lt;div&gt;+ void eliminarEquipo(Equipo equipo)&lt;/div&gt;&lt;div&gt;+ HashMap&amp;lt;String, Equipo&amp;gt; getEquipos()&lt;/div&gt;&lt;div&gt;+ void agregarPartido(Partido partido)&lt;/div&gt;&lt;div&gt;+ void eliminarPartido(Partido partido)&lt;/div&gt;&lt;div&gt;+ List&amp;lt;Partido&amp;gt; getPartidos()&lt;/div&gt;&lt;div&gt;+ void agregarGol(Gol gol)&lt;/div&gt;&lt;div&gt;+ void eliminarGol(Gol gol)&lt;/div&gt;&lt;div&gt;+ List&amp;lt;Gol&amp;gt; getGoles()&lt;/div&gt;&lt;div&gt;+ Resultado getResultado(Partido partido)&lt;/div&gt;&lt;div&gt;+ double getPromedioGoles(String nombre)&lt;/div&gt;&lt;div&gt;+ Jugador getMasGoleador(String jugadorA, String jugadorB)&lt;/div&gt;&lt;div&gt;+ int getCantPartidosJugados(String equipo)&lt;/div&gt;&lt;div&gt;+ int getPuntosObtenidos(String equipo)&lt;/div&gt;&lt;div&gt;+ Equipo getEquipoMayorPuntaje(String equipo1, String equipo2)&lt;/div&gt;&lt;div&gt;+ Jugador getGoleadorMaxGoles&lt;span style=&quot;color: rgb(63, 63, 63); background-color: transparent;&quot;&gt;(String equipo1, String equipo2)&lt;/span&gt;&lt;/div&gt;" style="text;strokeColor=none;fillColor=none;align=left;verticalAlign=top;spacingLeft=4;spacingRight=4;overflow=hidden;rotatable=0;points=[[0,0.5],[1,0.5]];portConstraint=eastwest;whiteSpace=wrap;html=1;" parent="14" vertex="1">
                    <mxGeometry y="98" width="370" height="272" as="geometry"/>
                </mxCell>
                <mxCell id="18" value="Gol" style="swimlane;fontStyle=1;align=center;verticalAlign=top;childLayout=stackLayout;horizontal=1;startSize=26;horizontalStack=0;resizeParent=1;resizeParentMax=0;resizeLast=0;collapsible=1;marginBottom=0;whiteSpace=wrap;html=1;" parent="1" vertex="1" collapsed="1">
                    <mxGeometry x="950" y="80" width="60" height="30" as="geometry">
                        <mxRectangle x="700" y="90" width="230" height="150" as="alternateBounds"/>
                    </mxGeometry>
                </mxCell>
                <mxCell id="19" value="- Jugador autor&lt;div&gt;- Partido partido&lt;/div&gt;" style="text;strokeColor=none;fillColor=none;align=left;verticalAlign=top;spacingLeft=4;spacingRight=4;overflow=hidden;rotatable=0;points=[[0,0.5],[1,0.5]];portConstraint=eastwest;whiteSpace=wrap;html=1;" parent="18" vertex="1">
                    <mxGeometry y="26" width="230" height="34" as="geometry"/>
                </mxCell>
                <mxCell id="20" value="" style="line;strokeWidth=1;fillColor=none;align=left;verticalAlign=middle;spacingTop=-1;spacingLeft=3;spacingRight=3;rotatable=0;labelPosition=right;points=[];portConstraint=eastwest;strokeColor=inherit;" parent="18" vertex="1">
                    <mxGeometry y="60" width="230" height="8" as="geometry"/>
                </mxCell>
                <mxCell id="21" value="+ Gol(Jugador autor, Partido parido)&lt;div&gt;+ void setAutor(Jugador autor)&lt;/div&gt;&lt;div&gt;+ Autor getAutor()&lt;/div&gt;&lt;div&gt;+ void setPartido(Partido partido)&lt;/div&gt;&lt;div&gt;+ Partido getPartido()&lt;/div&gt;" style="text;strokeColor=none;fillColor=none;align=left;verticalAlign=top;spacingLeft=4;spacingRight=4;overflow=hidden;rotatable=0;points=[[0,0.5],[1,0.5]];portConstraint=eastwest;whiteSpace=wrap;html=1;" parent="18" vertex="1">
                    <mxGeometry y="68" width="230" height="82" as="geometry"/>
                </mxCell>
                <mxCell id="22" value="" style="endArrow=open;html=1;endSize=12;startArrow=diamondThin;startSize=14;startFill=1;edgeStyle=orthogonalEdgeStyle;align=left;verticalAlign=bottom;entryX=0.5;entryY=1;entryDx=0;entryDy=0;exitX=0;exitY=0.5;exitDx=0;exitDy=0;" parent="1" source="14" target="2" edge="1">
                    <mxGeometry x="-1" y="3" relative="1" as="geometry">
                        <mxPoint x="500" y="200" as="sourcePoint"/>
                        <mxPoint x="660" y="200" as="targetPoint"/>
                    </mxGeometry>
                </mxCell>
                <mxCell id="24" value="" style="endArrow=open;html=1;endSize=12;startArrow=diamondThin;startSize=14;startFill=1;edgeStyle=orthogonalEdgeStyle;align=left;verticalAlign=bottom;exitX=1;exitY=0.5;exitDx=0;exitDy=0;entryX=0;entryY=0.5;entryDx=0;entryDy=0;" parent="1" source="14" target="10" edge="1">
                    <mxGeometry x="-1" y="3" relative="1" as="geometry">
                        <mxPoint x="310" y="310" as="sourcePoint"/>
                        <mxPoint x="790" y="410" as="targetPoint"/>
                    </mxGeometry>
                </mxCell>
                <mxCell id="26" value="" style="endArrow=open;html=1;endSize=12;startArrow=diamondThin;startSize=14;startFill=1;edgeStyle=orthogonalEdgeStyle;align=left;verticalAlign=bottom;exitX=1;exitY=0.5;exitDx=0;exitDy=0;entryX=0;entryY=0.5;entryDx=0;entryDy=0;" parent="1" source="2" target="6" edge="1">
                    <mxGeometry x="-1" y="3" relative="1" as="geometry">
                        <mxPoint x="500" y="240" as="sourcePoint"/>
                        <mxPoint x="660" y="240" as="targetPoint"/>
                    </mxGeometry>
                </mxCell>
                <mxCell id="28" value="" style="endArrow=open;html=1;endSize=12;startArrow=diamondThin;startSize=14;startFill=1;edgeStyle=orthogonalEdgeStyle;align=left;verticalAlign=bottom;entryX=0;entryY=0.5;entryDx=0;entryDy=0;exitX=0.5;exitY=0;exitDx=0;exitDy=0;" parent="1" source="14" target="18" edge="1">
                    <mxGeometry x="-1" y="3" relative="1" as="geometry">
                        <mxPoint x="460" y="340" as="sourcePoint"/>
                        <mxPoint x="740" y="150" as="targetPoint"/>
                        <Array as="points">
                            <mxPoint x="640" y="390"/>
                            <mxPoint x="640" y="95"/>
                        </Array>
                    </mxGeometry>
                </mxCell>
                <mxCell id="29" value="" style="endArrow=open;html=1;endSize=12;startArrow=diamondThin;startSize=14;startFill=1;edgeStyle=orthogonalEdgeStyle;align=left;verticalAlign=bottom;exitX=1;exitY=0.5;exitDx=0;exitDy=0;entryX=0;entryY=1;entryDx=0;entryDy=0;" parent="1" source="6" target="18" edge="1">
                    <mxGeometry x="-1" y="3" relative="1" as="geometry">
                        <mxPoint x="850" y="140" as="sourcePoint"/>
                        <mxPoint x="700" y="105" as="targetPoint"/>
                        <Array as="points">
                            <mxPoint x="665" y="85"/>
                            <mxPoint x="665" y="120"/>
                            <mxPoint x="910" y="120"/>
                        </Array>
                    </mxGeometry>
                </mxCell>
                <mxCell id="30" value="" style="endArrow=open;html=1;endSize=12;startArrow=diamondThin;startSize=14;startFill=1;edgeStyle=orthogonalEdgeStyle;align=left;verticalAlign=bottom;exitX=0.5;exitY=0;exitDx=0;exitDy=0;entryX=0.471;entryY=1.011;entryDx=0;entryDy=0;entryPerimeter=0;" parent="1" source="10" target="21" edge="1">
                    <mxGeometry x="-1" y="3" relative="1" as="geometry">
                        <mxPoint x="800" y="250" as="sourcePoint"/>
                        <mxPoint x="810" y="250" as="targetPoint"/>
                    </mxGeometry>
                </mxCell>
                <mxCell id="31" value="" style="endArrow=open;html=1;endSize=12;startArrow=diamondThin;startSize=14;startFill=1;edgeStyle=orthogonalEdgeStyle;align=left;verticalAlign=bottom;exitX=1;exitY=0.75;exitDx=0;exitDy=0;entryX=0.25;entryY=0;entryDx=0;entryDy=0;" parent="1" source="2" target="10" edge="1">
                    <mxGeometry x="-1" y="3" relative="1" as="geometry">
                        <mxPoint x="590" y="230" as="sourcePoint"/>
                        <mxPoint x="750" y="230" as="targetPoint"/>
                    </mxGeometry>
                </mxCell>
                <mxCell id="32" value="Resultado" style="swimlane;fontStyle=1;align=center;verticalAlign=top;childLayout=stackLayout;horizontal=1;startSize=26;horizontalStack=0;resizeParent=1;resizeParentMax=0;resizeLast=0;collapsible=1;marginBottom=0;whiteSpace=wrap;html=1;" vertex="1" parent="1">
                    <mxGeometry x="990" y="674" width="260" height="170" as="geometry"/>
                </mxCell>
                <mxCell id="33" value="- int[] cantGoles&lt;div&gt;- ArrayList&amp;lt;ArrayList&amp;lt;Jugador&amp;gt;&amp;gt; autores&lt;/div&gt;" style="text;strokeColor=none;fillColor=none;align=left;verticalAlign=top;spacingLeft=4;spacingRight=4;overflow=hidden;rotatable=0;points=[[0,0.5],[1,0.5]];portConstraint=eastwest;whiteSpace=wrap;html=1;" vertex="1" parent="32">
                    <mxGeometry y="26" width="260" height="44" as="geometry"/>
                </mxCell>
                <mxCell id="34" value="" style="line;strokeWidth=1;fillColor=none;align=left;verticalAlign=middle;spacingTop=-1;spacingLeft=3;spacingRight=3;rotatable=0;labelPosition=right;points=[];portConstraint=eastwest;strokeColor=inherit;" vertex="1" parent="32">
                    <mxGeometry y="70" width="260" height="8" as="geometry"/>
                </mxCell>
                <mxCell id="35" value="&lt;div&gt;+ Resultado(Partido partido)&lt;/div&gt;&lt;div&gt;+ int[] getCantGoles()&lt;/div&gt;&lt;div&gt;+&amp;nbsp;&lt;span style=&quot;color: rgb(0, 0, 0); background-color: transparent;&quot;&gt;ArrayList&amp;lt;Jugador&amp;gt;[] getAutores()&lt;/span&gt;&lt;/div&gt;+ void agregarGol(Gol gol)&lt;div&gt;+ String toString()&lt;/div&gt;" style="text;strokeColor=none;fillColor=none;align=left;verticalAlign=top;spacingLeft=4;spacingRight=4;overflow=hidden;rotatable=0;points=[[0,0.5],[1,0.5]];portConstraint=eastwest;whiteSpace=wrap;html=1;" vertex="1" parent="32">
                    <mxGeometry y="78" width="260" height="92" as="geometry"/>
                </mxCell>
                <mxCell id="36" value="Extends" style="endArrow=block;endSize=16;endFill=0;html=1;exitX=0.5;exitY=0;exitDx=0;exitDy=0;entryX=0.5;entryY=1;entryDx=0;entryDy=0;" edge="1" parent="1" source="32" target="10">
                    <mxGeometry width="160" relative="1" as="geometry">
                        <mxPoint x="990" y="490" as="sourcePoint"/>
                        <mxPoint x="1150" y="490" as="targetPoint"/>
                    </mxGeometry>
                </mxCell>
            </root>
        </mxGraphModel>
    </diagram>
</mxfile>